<svg width="48" height="48" viewBox="0 0 48 48" fill="none" xmlns="http://www.w3.org/2000/svg">
<rect width="48" height="48" rx="12" fill="url(#paint0_linear_2428_228)"/>
<path d="M28.5 10.5C29.2956 10.5 30.0587 10.8161 30.6213 11.3787C31.1839 11.9413 31.5 12.7044 31.5 13.5V19.5H34.5C35.2956 19.5 36.0587 19.8161 36.6213 20.3787C37.1839 20.9413 37.5 21.7044 37.5 22.5V34.5C37.8978 34.5 38.2794 34.658 38.5607 34.9393C38.842 35.2206 39 35.6022 39 36C39 36.3978 38.842 36.7794 38.5607 37.0607C38.2794 37.342 37.8978 37.5 37.5 37.5H10.5C10.1022 37.5 9.72064 37.342 9.43934 37.0607C9.15804 36.7794 9 36.3978 9 36C9 35.6022 9.15804 35.2206 9.43934 34.9393C9.72064 34.658 10.1022 34.5 10.5 34.5V19.5C10.5 18.7044 10.8161 17.9413 11.3787 17.3787C11.9413 16.8161 12.7044 16.5 13.5 16.5H16.5V13.5C16.5 12.7044 16.8161 11.9413 17.3787 11.3787C17.9413 10.8161 18.7044 10.5 19.5 10.5H28.5ZM16.5 19.5H13.5V34.5H16.5V19.5ZM34.5 22.5H31.5V34.5H34.5V22.5ZM28.5 13.5H19.5V34.5H28.5V13.5ZM25.5 28.5V31.5H22.5V28.5H25.5ZM25.5 22.5V25.5H22.5V22.5H25.5ZM25.5 16.5V19.5H22.5V16.5H25.5Z" fill="white"/>
<defs>
<linearGradient id="paint0_linear_2428_228" x1="0" y1="0" x2="53.8065" y2="48" gradientUnits="userSpaceOnUse">
<stop stop-color="#0047AB"/>
<stop offset="1" stop-color="#153655"/>
</linearGradient>
</defs>
</svg>
